<svg 
 xmlns="http://www.w3.org/2000/svg"
 xmlns:xlink="http://www.w3.org/1999/xlink"
 width="226px" height="26px">
<path fill-rule="evenodd"  fill="rgb(255, 255, 255)"
 d="M222.001,20.298 L222.001,18.435 C221.443,19.119 220.755,19.632 219.936,19.974 C219.117,20.316 218.212,20.487 217.222,20.487 C215.836,20.487 214.590,20.181 213.483,19.569 C212.376,18.957 211.507,18.089 210.877,16.964 C210.247,15.839 209.932,14.547 209.932,13.089 C209.932,11.631 210.247,10.344 210.877,9.228 C211.507,8.112 212.376,7.248 213.483,6.636 C214.590,6.024 215.836,5.718 217.222,5.718 C218.176,5.718 219.049,5.880 219.841,6.204 C220.633,6.528 221.308,7.014 221.866,7.662 L221.866,0.264 L225.241,0.264 L225.241,20.298 L222.001,20.298 ZM221.353,10.713 C220.975,10.029 220.462,9.503 219.814,9.134 C219.166,8.765 218.437,8.580 217.627,8.580 C216.817,8.580 216.088,8.765 215.440,9.134 C214.792,9.503 214.279,10.029 213.901,10.713 C213.523,11.397 213.334,12.189 213.334,13.089 C213.334,13.989 213.523,14.781 213.901,15.465 C214.279,16.149 214.792,16.676 215.440,17.045 C216.088,17.414 216.817,17.598 217.627,17.598 C218.437,17.598 219.166,17.414 219.814,17.045 C220.462,16.676 220.975,16.149 221.353,15.465 C221.731,14.781 221.920,13.989 221.920,13.089 C221.920,12.189 221.731,11.397 221.353,10.713 ZM196.514,14.169 C196.712,15.231 197.229,16.073 198.066,16.694 C198.903,17.315 199.943,17.625 201.185,17.625 C202.768,17.625 204.074,17.103 205.100,16.059 L206.909,18.138 C206.261,18.912 205.441,19.497 204.452,19.893 C203.462,20.289 202.346,20.487 201.104,20.487 C199.520,20.487 198.124,20.172 196.919,19.542 C195.713,18.912 194.781,18.035 194.124,16.910 C193.467,15.785 193.139,14.511 193.139,13.089 C193.139,11.685 193.458,10.421 194.097,9.296 C194.736,8.171 195.623,7.293 196.757,6.663 C197.891,6.033 199.169,5.718 200.591,5.718 C201.995,5.718 203.250,6.029 204.357,6.650 C205.464,7.271 206.328,8.144 206.949,9.269 C207.570,10.394 207.881,11.694 207.881,13.170 C207.881,13.404 207.863,13.737 207.827,14.169 L196.514,14.169 ZM203.345,9.390 C202.606,8.742 201.688,8.418 200.591,8.418 C199.511,8.418 198.597,8.738 197.850,9.377 C197.103,10.016 196.649,10.866 196.487,11.928 L204.668,11.928 C204.523,10.884 204.083,10.038 203.345,9.390 ZM186.524,12.468 C186.524,11.208 186.227,10.259 185.633,9.620 C185.039,8.981 184.193,8.661 183.095,8.661 C181.853,8.661 180.872,9.035 180.152,9.782 C179.432,10.529 179.072,11.604 179.072,13.008 L179.072,20.298 L175.697,20.298 L175.697,5.880 L178.910,5.880 L178.910,7.743 C179.468,7.077 180.170,6.573 181.016,6.231 C181.862,5.889 182.816,5.718 183.878,5.718 C185.696,5.718 187.154,6.249 188.252,7.311 C189.350,8.373 189.899,9.948 189.899,12.036 L189.899,20.298 L186.524,20.298 L186.524,12.468 ZM161.090,14.169 C161.288,15.231 161.806,16.073 162.643,16.694 C163.480,17.315 164.519,17.625 165.761,17.625 C167.345,17.625 168.650,17.103 169.676,16.059 L171.485,18.138 C170.837,18.912 170.018,19.497 169.028,19.893 C168.038,20.289 166.922,20.487 165.680,20.487 C164.096,20.487 162.701,20.172 161.495,19.542 C160.289,18.912 159.358,18.035 158.701,16.910 C158.043,15.785 157.715,14.511 157.715,13.089 C157.715,11.685 158.035,10.421 158.674,9.296 C159.312,8.171 160.199,7.293 161.333,6.663 C162.467,6.033 163.745,5.718 165.167,5.718 C166.571,5.718 167.827,6.029 168.934,6.650 C170.041,7.271 170.905,8.144 171.526,9.269 C172.147,10.394 172.457,11.694 172.457,13.170 C172.457,13.404 172.439,13.737 172.403,14.169 L161.090,14.169 ZM167.921,9.390 C167.183,8.742 166.265,8.418 165.167,8.418 C164.087,8.418 163.173,8.738 162.427,9.377 C161.680,10.016 161.225,10.866 161.063,11.928 L169.244,11.928 C169.100,10.884 168.659,10.038 167.921,9.390 ZM152.140,19.569 C151.033,20.181 149.777,20.487 148.373,20.487 C146.429,20.487 144.890,19.839 143.756,18.543 L143.756,25.536 L140.381,25.536 L140.381,5.880 L143.594,5.880 L143.594,7.770 C144.152,7.086 144.841,6.573 145.660,6.231 C146.479,5.889 147.383,5.718 148.373,5.718 C149.777,5.718 151.033,6.024 152.140,6.636 C153.247,7.248 154.115,8.112 154.745,9.228 C155.375,10.344 155.690,11.631 155.690,13.089 C155.690,14.547 155.375,15.839 154.745,16.964 C154.115,18.089 153.247,18.957 152.140,19.569 ZM151.060,9.822 C150.259,8.994 149.237,8.580 147.995,8.580 C147.185,8.580 146.456,8.765 145.808,9.134 C145.160,9.503 144.647,10.029 144.269,10.713 C143.891,11.397 143.702,12.189 143.702,13.089 C143.702,13.989 143.891,14.781 144.269,15.465 C144.647,16.149 145.160,16.676 145.808,17.045 C146.456,17.414 147.185,17.598 147.995,17.598 C149.237,17.598 150.259,17.184 151.060,16.356 C151.861,15.528 152.261,14.439 152.261,13.089 C152.261,11.739 151.861,10.650 151.060,9.822 ZM133.618,19.569 C132.511,20.181 131.256,20.487 129.852,20.487 C127.908,20.487 126.369,19.839 125.235,18.543 L125.235,25.536 L121.860,25.536 L121.860,5.880 L125.073,5.880 L125.073,7.770 C125.630,7.086 126.319,6.573 127.138,6.231 C127.957,5.889 128.862,5.718 129.852,5.718 C131.256,5.718 132.511,6.024 133.618,6.636 C134.725,7.248 135.593,8.112 136.224,9.228 C136.854,10.344 137.169,11.631 137.169,13.089 C137.169,14.547 136.854,15.839 136.224,16.964 C135.593,18.089 134.725,18.957 133.618,19.569 ZM132.538,9.822 C131.737,8.994 130.716,8.580 129.474,8.580 C128.664,8.580 127.935,8.765 127.287,9.134 C126.639,9.503 126.126,10.029 125.748,10.713 C125.370,11.397 125.181,12.189 125.181,13.089 C125.181,13.989 125.370,14.781 125.748,15.465 C126.126,16.149 126.639,16.676 127.287,17.045 C127.935,17.414 128.664,17.598 129.474,17.598 C130.716,17.598 131.737,17.184 132.538,16.356 C133.339,15.528 133.740,14.439 133.740,13.089 C133.740,11.739 133.339,10.650 132.538,9.822 ZM114.354,18.543 C113.940,19.173 113.350,19.655 112.585,19.988 C111.820,20.321 110.898,20.487 109.818,20.487 C108.738,20.487 107.793,20.302 106.983,19.934 C106.173,19.565 105.547,19.052 105.106,18.395 C104.665,17.738 104.445,16.995 104.445,16.167 C104.445,14.871 104.926,13.832 105.889,13.049 C106.852,12.266 108.369,11.874 110.439,11.874 L114.165,11.874 L114.165,11.658 C114.165,10.650 113.863,9.876 113.260,9.336 C112.657,8.796 111.762,8.526 110.574,8.526 C109.764,8.526 108.967,8.652 108.184,8.904 C107.401,9.156 106.740,9.507 106.200,9.957 L104.877,7.500 C105.633,6.924 106.542,6.483 107.604,6.177 C108.666,5.871 109.791,5.718 110.979,5.718 C113.103,5.718 114.727,6.227 115.852,7.244 C116.977,8.261 117.540,9.795 117.540,11.847 L117.540,20.298 L114.354,20.298 L114.354,18.543 ZM114.165,14.115 L110.682,14.115 C108.738,14.115 107.766,14.754 107.766,16.032 C107.766,16.644 108.009,17.130 108.495,17.490 C108.981,17.850 109.656,18.030 110.520,18.030 C111.366,18.030 112.117,17.837 112.774,17.450 C113.431,17.063 113.895,16.509 114.165,15.789 L114.165,14.115 ZM97.803,12.468 C97.803,11.208 97.506,10.259 96.912,9.620 C96.318,8.981 95.472,8.661 94.374,8.661 C93.132,8.661 92.151,9.035 91.431,9.782 C90.711,10.529 90.351,11.604 90.351,13.008 L90.351,20.298 L86.976,20.298 L86.976,0.264 L90.351,0.264 L90.351,7.554 C90.909,6.960 91.597,6.506 92.416,6.191 C93.235,5.876 94.149,5.718 95.157,5.718 C96.975,5.718 98.433,6.249 99.531,7.311 C100.629,8.373 101.178,9.948 101.178,12.036 L101.178,20.298 L97.803,20.298 L97.803,12.468 ZM73.503,20.487 C71.919,20.487 70.695,20.073 69.831,19.245 C68.967,18.417 68.535,17.211 68.535,15.627 L68.535,8.688 L66.159,8.688 L66.159,5.988 L68.535,5.988 L68.535,2.694 L71.910,2.694 L71.910,5.988 L75.771,5.988 L75.771,8.688 L71.910,8.688 L71.910,15.546 C71.910,16.248 72.081,16.784 72.423,17.153 C72.765,17.522 73.260,17.706 73.908,17.706 C74.664,17.706 75.294,17.508 75.798,17.112 L76.743,19.515 C76.347,19.839 75.866,20.082 75.299,20.244 C74.732,20.406 74.133,20.487 73.503,20.487 ZM60.571,18.543 C60.156,19.173 59.567,19.655 58.802,19.988 C58.037,20.321 57.115,20.487 56.035,20.487 C54.955,20.487 54.010,20.302 53.200,19.934 C52.390,19.565 51.764,19.052 51.323,18.395 C50.882,17.738 50.662,16.995 50.662,16.167 C50.662,14.871 51.143,13.832 52.106,13.049 C53.069,12.266 54.585,11.874 56.656,11.874 L60.382,11.874 L60.382,11.658 C60.382,10.650 60.080,9.876 59.477,9.336 C58.874,8.796 57.979,8.526 56.791,8.526 C55.981,8.526 55.184,8.652 54.401,8.904 C53.618,9.156 52.957,9.507 52.417,9.957 L51.094,7.500 C51.850,6.924 52.758,6.483 53.821,6.177 C54.882,5.871 56.008,5.718 57.196,5.718 C59.319,5.718 60.944,6.227 62.069,7.244 C63.194,8.261 63.757,9.795 63.757,11.847 L63.757,20.298 L60.571,20.298 L60.571,18.543 ZM60.382,14.115 L56.899,14.115 C54.955,14.115 53.983,14.754 53.983,16.032 C53.983,16.644 54.226,17.130 54.712,17.490 C55.198,17.850 55.873,18.030 56.737,18.030 C57.582,18.030 58.334,17.837 58.991,17.450 C59.648,17.063 60.112,16.509 60.382,15.789 L60.382,14.115 ZM44.020,12.468 C44.020,11.208 43.723,10.259 43.129,9.620 C42.535,8.981 41.688,8.661 40.591,8.661 C39.349,8.661 38.367,9.035 37.648,9.782 C36.927,10.529 36.568,11.604 36.568,13.008 L36.568,20.298 L33.193,20.298 L33.193,0.264 L36.568,0.264 L36.568,7.554 C37.125,6.960 37.814,6.506 38.633,6.191 C39.452,5.876 40.365,5.718 41.374,5.718 C43.191,5.718 44.649,6.249 45.748,7.311 C46.845,8.373 47.395,9.948 47.395,12.036 L47.395,20.298 L44.020,20.298 L44.020,12.468 ZM20.260,20.298 L15.589,6.312 L10.837,20.298 L7.084,20.298 L0.820,1.398 L4.465,1.398 L9.163,15.762 L14.050,1.398 L17.290,1.398 L22.069,15.843 L26.902,1.398 L30.250,1.398 L23.986,20.298 L20.260,20.298 Z"/>
</svg>