<svg 
 xmlns="http://www.w3.org/2000/svg"
 xmlns:xlink="http://www.w3.org/1999/xlink"
 width="24px" height="24px">
<path fill-rule="evenodd"  fill-opacity="0" opacity="0.2" fill="rgb(26, 26, 26)"
 d="M0.343,0.718 L23.624,0.718 L23.624,23.999 L0.343,23.999 L0.343,0.718 Z"/>
<path fill-rule="evenodd"  fill="rgb(5, 101, 187)"
 d="M23.606,12.702 C23.606,6.770 18.667,1.960 12.576,1.960 C6.484,1.960 1.545,6.770 1.545,12.702 C1.545,18.065 5.579,22.509 10.852,23.315 L10.852,15.809 L8.053,15.809 L8.053,12.702 L10.852,12.702 L10.852,10.337 C10.852,7.642 12.500,6.156 15.018,6.156 C16.226,6.156 17.489,6.366 17.489,6.366 L17.489,9.009 L16.099,9.009 C14.729,9.009 14.299,9.837 14.299,10.686 L14.299,12.702 L17.358,12.702 L16.868,15.810 L14.299,15.810 L14.299,23.315 C19.574,22.509 23.606,18.065 23.606,12.702 L23.606,12.702 Z"/>
</svg>