<svg 
 xmlns="http://www.w3.org/2000/svg"
 xmlns:xlink="http://www.w3.org/1999/xlink"
 width="25px" height="24px">
<path fill-rule="evenodd"  fill-opacity="0" opacity="0.2" fill="rgb(26, 26, 26)"
 d="M0.874,0.718 L24.156,0.718 L24.156,23.999 L0.874,23.999 L0.874,0.718 Z"/>
<path fill-rule="evenodd"  fill="rgb(249, 100, 0)"
 d="M19.278,22.764 C14.737,22.764 10.195,22.772 5.656,22.764 C3.768,22.707 2.119,21.007 2.114,19.118 C2.113,14.920 2.109,10.721 2.129,6.524 C2.119,6.034 2.111,5.542 2.169,5.057 C2.409,3.610 3.569,2.383 4.993,2.045 C5.653,1.909 6.336,1.963 7.008,1.958 C11.134,1.963 15.263,1.953 19.390,1.963 C21.266,2.004 22.922,3.708 22.912,5.585 C22.935,10.094 22.930,14.604 22.928,19.114 C22.928,21.042 21.210,22.770 19.278,22.764 ZM21.342,5.914 C20.916,4.499 19.521,3.432 18.039,3.431 C14.361,3.427 10.685,3.427 7.008,3.431 C5.230,3.420 3.623,4.965 3.551,6.740 C3.542,8.610 3.546,10.482 3.551,12.353 C3.592,14.079 5.085,15.611 6.810,15.705 C8.241,15.741 9.674,15.703 11.108,15.726 C11.438,16.433 11.795,17.128 12.134,17.832 C12.228,18.008 12.296,18.233 12.518,18.284 C12.744,18.241 12.812,18.014 12.906,17.839 C13.251,17.132 13.601,16.429 13.942,15.722 C15.374,15.705 16.804,15.739 18.238,15.705 C19.958,15.611 21.449,14.079 21.491,12.356 C21.501,10.864 21.493,9.373 21.497,7.881 C21.484,7.222 21.560,6.547 21.342,5.914 ZM18.972,13.092 C18.579,13.395 18.054,13.427 17.576,13.405 C17.578,13.075 17.576,12.744 17.576,12.413 C17.829,12.401 18.122,12.414 18.319,12.228 C18.542,12.015 18.542,11.686 18.563,11.402 C18.024,11.910 17.122,11.925 16.584,11.414 C15.835,10.706 15.947,9.316 16.797,8.731 C17.317,8.362 18.124,8.362 18.550,8.878 C18.548,8.806 18.548,8.658 18.548,8.582 C18.906,8.579 19.267,8.579 19.625,8.582 C19.625,9.595 19.628,10.610 19.625,11.624 C19.620,12.168 19.429,12.758 18.972,13.092 ZM17.638,9.471 C17.107,9.656 17.057,10.503 17.555,10.754 C17.984,10.999 18.613,10.683 18.586,10.164 C18.645,9.671 18.089,9.259 17.638,9.471 ZM11.994,10.788 C11.624,9.905 12.137,8.788 13.082,8.560 C13.753,8.372 14.548,8.474 15.066,8.970 C15.762,9.617 15.708,10.884 14.940,11.452 C14.034,12.136 12.433,11.915 11.994,10.788 ZM13.494,9.483 C12.933,9.639 12.857,10.525 13.377,10.781 C13.808,11.039 14.459,10.688 14.396,10.168 C14.459,9.695 13.930,9.314 13.494,9.483 ZM10.068,8.815 C10.072,8.496 9.903,8.175 9.578,8.082 C9.571,7.726 9.576,7.375 9.578,7.021 C9.907,7.030 10.242,7.105 10.502,7.305 C10.974,7.648 11.171,8.253 11.157,8.815 C11.154,9.789 11.161,10.763 11.157,11.733 C10.801,11.737 10.445,11.737 10.091,11.736 C10.074,10.763 10.111,9.789 10.068,8.815 ZM6.778,11.410 C6.780,11.490 6.781,11.653 6.783,11.733 C6.423,11.737 6.058,11.740 5.697,11.725 C5.713,10.193 5.679,8.658 5.718,7.128 C6.075,7.137 6.428,7.133 6.783,7.137 C6.771,7.709 6.789,8.282 6.771,8.856 C7.289,8.334 8.211,8.354 8.724,8.873 C9.436,9.557 9.410,10.861 8.650,11.497 C8.129,11.951 7.228,11.977 6.778,11.410 ZM7.159,9.500 C6.621,9.694 6.594,10.564 7.118,10.795 C7.556,11.028 8.159,10.672 8.118,10.164 C8.164,9.671 7.605,9.291 7.159,9.500 Z"/>
</svg>