<svg 
 xmlns="http://www.w3.org/2000/svg"
 xmlns:xlink="http://www.w3.org/1999/xlink"
 width="24px" height="24px">
<path fill-rule="evenodd"  fill-opacity="0" opacity="0.2" fill="rgb(26, 26, 26)"
 d="M0.031,0.499 L23.312,0.499 L23.312,23.781 L0.031,23.781 L0.031,0.499 Z"/>
<path fill-rule="evenodd"  fill="rgb(0, 131, 63)"
 d="M0.026,2.971 C0.041,9.494 0.030,16.015 0.030,22.537 C2.548,22.550 5.066,22.550 7.584,22.541 C7.621,19.306 7.537,16.069 7.626,12.834 C8.452,13.955 9.206,15.124 10.049,16.231 C11.457,18.355 13.052,20.361 14.408,22.519 C16.941,22.584 19.476,22.518 22.009,22.557 C22.038,22.252 22.064,21.944 22.064,21.639 C22.026,15.412 22.094,9.186 22.030,2.963 C19.519,2.945 17.018,2.968 14.512,2.953 C14.495,6.206 14.533,9.457 14.490,12.707 C12.163,9.494 9.962,6.183 7.580,3.007 C5.066,2.895 2.542,2.973 0.026,2.971 Z"/>
</svg>