<svg 
 xmlns="http://www.w3.org/2000/svg"
 xmlns:xlink="http://www.w3.org/1999/xlink"
 width="355px" height="383.5px">
<path fill-rule="evenodd"  stroke-width="3px" stroke="rgb(17, 17, 17)" fill="rgb(238, 238, 238)"
 d="M6.500,6.500 L324.500,6.500 L324.500,321.500 L6.500,321.500 L6.500,6.500 Z"/>
<path fill-rule="evenodd"  fill="rgb(17, 17, 17)"
 d="M22.581,221.965 L112.645,229.578 C117.507,229.992 121.365,230.659 124.093,231.286 C122.305,233.736 119.628,236.592 116.304,238.706 L86.384,257.774 C79.396,262.229 75.548,264.680 77.170,270.243 L78.797,275.134 L83.871,275.134 C85.683,275.134 87.114,274.775 94.101,271.141 L125.787,254.649 C131.040,251.919 135.751,250.501 138.586,250.181 C139.494,253.438 140.373,260.417 137.707,265.538 L120.864,297.903 C117.244,304.856 115.594,308.028 117.914,311.843 L119.985,315.146 L123.833,315.146 C128.158,315.146 129.935,312.358 134.231,305.620 L153.957,274.660 C156.035,271.404 157.981,268.731 159.617,266.690 C160.782,269.626 161.933,273.475 162.274,277.485 L170.045,369.423 C170.574,375.696 171.235,383.505 178.504,383.505 C185.774,383.505 186.438,375.699 186.969,369.423 L194.741,277.488 C195.101,273.235 195.633,269.680 196.182,266.956 C198.418,268.811 200.987,271.421 203.051,274.657 L222.783,305.623 C227.079,312.358 228.864,315.146 233.235,315.146 L237.134,315.085 L239.121,311.802 C241.424,308.028 239.768,304.856 236.151,297.903 L219.308,265.542 C216.426,260.000 215.308,255.606 214.890,253.458 C216.379,253.091 218.729,252.687 221.685,252.687 C224.318,252.687 228.110,253.026 231.228,254.646 L262.920,271.141 C269.856,274.754 271.366,275.134 273.204,275.134 C273.204,275.134 273.204,275.134 273.211,275.134 L278.456,275.037 L279.884,270.121 C281.467,264.680 277.622,262.229 270.631,257.774 L240.711,238.713 C237.309,236.542 234.568,234.491 232.548,232.801 C235.665,231.400 239.915,229.956 244.367,229.578 L334.434,221.965 C340.710,221.436 348.515,220.776 348.515,213.503 C348.515,206.230 340.710,205.570 334.434,205.042 L244.367,197.426 C239.512,197.015 235.653,196.346 232.925,195.718 C234.716,193.264 237.390,190.409 240.711,188.295 L270.631,169.226 C277.622,164.771 281.467,162.321 279.844,156.762 L278.215,151.866 L273.143,151.866 C271.372,151.866 269.870,152.243 262.920,155.863 L231.228,172.352 C225.975,175.085 221.267,176.503 218.433,176.823 C217.524,173.567 216.641,166.587 219.308,161.466 L236.151,129.091 C239.768,122.148 241.410,118.979 239.101,115.151 L237.026,111.855 L233.181,111.855 C228.851,111.855 227.073,114.642 222.783,121.380 L203.058,152.341 C200.980,155.597 199.034,158.274 197.397,160.311 C196.232,157.371 195.081,153.522 194.741,149.519 L186.969,57.574 C186.438,51.305 185.774,43.503 178.504,43.503 C171.235,43.503 170.574,51.307 170.045,57.581 L162.274,149.516 C161.910,153.771 161.379,157.328 160.829,160.048 C158.600,158.196 156.028,155.587 153.964,152.348 L134.229,121.380 C129.935,114.642 128.158,111.855 123.786,111.855 L119.887,111.909 L117.890,115.198 C115.594,118.970 117.244,122.141 120.864,129.094 L137.707,161.466 C140.360,166.556 139.515,173.728 138.727,176.837 C135.909,176.550 131.137,175.129 125.800,172.355 L94.098,155.863 C87.155,152.246 85.649,151.866 83.811,151.866 L83.807,151.866 L78.569,151.964 L77.134,156.883 C75.548,162.321 79.396,164.771 86.384,169.220 L116.304,188.298 C119.712,190.466 122.456,192.513 124.470,194.200 C121.356,195.604 117.099,197.049 112.648,197.426 L22.581,205.042 C16.308,205.570 8.499,206.230 8.499,213.503 C8.499,220.776 16.308,221.436 22.581,221.965 Z"/>
<path fill-rule="evenodd"  stroke-width="3px" stroke="rgb(17, 17, 17)" fill="rgb(255, 255, 255)"
 d="M6.500,6.500 L348.500,6.500 L348.500,44.500 L6.500,44.500 L6.500,6.500 Z"/>
</svg>