<svg 
 xmlns="http://www.w3.org/2000/svg"
 xmlns:xlink="http://www.w3.org/1999/xlink"
 width="130px" height="130px">
<path fill-rule="evenodd"  fill="rgb(17, 17, 17)"
 d="M65.000,0.249 C100.760,0.249 129.749,29.238 129.749,65.000 C129.749,100.759 100.760,129.749 65.000,129.749 C29.239,129.749 0.250,100.759 0.250,65.000 C0.250,29.238 29.239,0.249 65.000,0.249 Z"/>
<path fill-rule="evenodd"  fill="rgb(255, 255, 255)"
 d="M45.577,79.698 L64.990,98.853 L95.988,68.270 C102.013,62.308 102.013,52.604 95.983,46.639 C89.936,40.678 80.096,40.675 74.047,46.643 L74.047,46.646 L64.990,55.581 L55.933,46.643 C49.886,40.690 40.051,40.685 33.997,46.646 C31.074,49.531 29.460,53.375 29.460,57.461 C29.460,61.542 31.074,65.381 34.001,68.265 L45.593,79.695 L45.577,79.698 Z"/>
</svg>